<?xml version="1.0" encoding="utf-8"?>
<!-- Generator: Adobe Illustrator 15.1.0, SVG Export Plug-In . SVG Version: 6.00 Build 0)  -->
<!DOCTYPE svg PUBLIC "-//W3C//DTD SVG 1.1//EN" "http://www.w3.org/Graphics/SVG/1.1/DTD/svg11.dtd">
<svg version="1.1" id="Layer_1" xmlns="http://www.w3.org/2000/svg" xmlns:xlink="http://www.w3.org/1999/xlink" x="0px" y="0px"
	 width="1155px" height="326px" viewBox="0 0 1155 326" enable-background="new 0 0 1155 326" xml:space="preserve">
<g>
	<path fill-rule="evenodd" clip-rule="evenodd" d="M517,55c4.481,5.519,9.184,10.816,13,17c28.322,13.615,73.291,19.106,109,9
		c11.422-3.233,19.486-11.685,32-17c29.326-12.457,72.464-9.739,103-2c9.628,2.44,18.119,9.062,28,8c3.969,1.895,3.999,3.851,6,6
		c20.229-2.56,43.386-0.286,64,4c11.706,2.434,21.852,7.593,32,10c3.778,0.896,7.767-0.063,11,1c15.054,4.951,36.147,23.227,23,42
		c-40.938-12.489-119.234-16.848-146,12c-22.161,23.885,9.022,53.824,24,65c-27.032,12.385-73.14,6.747-100-2
		c-12.895-4.199-23.877-11.155-37-15c-50.351-14.753-116.373-13.134-163,4c-6.077,2.232-13.234,6.78-20,8
		c-13.359,2.408-31.222,0-47,0c-15.723,0-31.603,0.193-46-1c-32.288-2.676-73.784-11.182-64-46c-23.807-2.654-52.35-2.745-74-12
		c-15.983-6.833-39.639-27.062-22-48c2.678-3.179,7.832-4.738,13-8c13.863-8.749,28.932-16.285,47-22
		C374.175,45.486,431.654,59.597,517,55z"/>
</g>
</svg>
