<?xml version="1.0" encoding="utf-8"?>
<!-- Generator: Adobe Illustrator 15.1.0, SVG Export Plug-In . SVG Version: 6.00 Build 0)  -->
<!DOCTYPE svg PUBLIC "-//W3C//DTD SVG 1.1//EN" "http://www.w3.org/Graphics/SVG/1.1/DTD/svg11.dtd">
<svg version="1.1" id="Layer_1" xmlns="http://www.w3.org/2000/svg" xmlns:xlink="http://www.w3.org/1999/xlink" x="0px" y="0px"
	 width="1155px" height="326px" viewBox="0 0 1155 326" enable-background="new 0 0 1155 326" xml:space="preserve">
<g>
	<path fill-rule="evenodd" clip-rule="evenodd" d="M577,23c0.256,8.744,0.703,17.297,2,25c21.31,9.544,39.412-6.984,59-13
		c37.037-11.375,92.402-13.981,140-8c21.492,2.701,41.706,10.131,63,14c24.686,4.485,49.022,4.653,72,9
		c43.546,8.238,84.296,20.43,118,43c14.864,9.954,33.731,25.82,36,44c3.545,28.405-20.951,36.582-31,54
		c-31.604-5.065-64.592-23.551-98-27c-14.533-1.5-37.668-0.372-40,12c-2.973,15.768,30.603,27.198,43,34
		c17.899,9.82,33.949,18.975,49,29c-50.68,28.729-98.824,51-171,51c-54.274,0-99.705-9.72-140-26c-23.101-9.334-43.779-24.429-80-22
		c-26.669,1.788-40.75,11.45-59,22c-5.147,2.976-12.048,7.922-17,9c-10.961,2.387-28.115,0-44,0c-109.414,0-236.807,9.875-264-71
		c-26.04-4.613-53.018-12.253-72-25c-14.792-9.933-31.03-24.987-25-52c8.294-37.157,59.449-60.736,97-74
		c44.517-15.725,89.026-24.489,143-27C428.58,20.717,508.284,24.379,577,23z M303,68c-18.068,5.715-33.137,13.251-47,22
		c-5.168,3.262-10.322,4.821-13,8c-17.639,20.938,6.017,41.167,22,48c21.65,9.255,50.193,9.346,74,12
		c-9.784,34.818,31.712,43.324,64,46c14.397,1.193,30.277,1,46,1c15.778,0,33.641,2.408,47,0c6.766-1.22,13.923-5.768,20-8
		c46.627-17.134,112.649-18.753,163-4c13.123,3.845,24.105,10.801,37,15c26.86,8.747,72.968,14.385,100,2
		c-14.978-11.176-46.161-41.115-24-65c26.766-28.848,105.063-24.489,146-12c13.147-18.773-7.946-37.049-23-42
		c-3.233-1.063-7.222-0.104-11-1c-10.148-2.407-20.294-7.566-32-10c-20.614-4.286-43.771-6.56-64-4c-2.001-2.149-2.031-4.105-6-6
		c-9.881,1.062-18.372-5.56-28-8c-30.536-7.739-73.674-10.457-103,2c-12.514,5.315-20.578,13.767-32,17
		c-35.709,10.106-80.678,4.615-109-9c-3.816-6.184-8.519-11.481-13-17C431.654,59.597,374.175,45.486,303,68z"/>
</g>
</svg>
