<?xml version="1.0" encoding="utf-8"?>
<!-- Generator: Adobe Illustrator 15.1.0, SVG Export Plug-In . SVG Version: 6.00 Build 0)  -->
<!DOCTYPE svg PUBLIC "-//W3C//DTD SVG 1.1//EN" "http://www.w3.org/Graphics/SVG/1.1/DTD/svg11.dtd">
<svg version="1.1" id="Layer_1" xmlns="http://www.w3.org/2000/svg" xmlns:xlink="http://www.w3.org/1999/xlink" x="0px" y="0px"
	 width="1155px" height="326px" viewBox="0 0 1155 326" enable-background="new 0 0 1155 326" xml:space="preserve">
<g>
	<path fill-rule="evenodd" clip-rule="evenodd" d="M1155,143c0,2,0,4,0,6c-12.843,32.491-54.976,35.691-99,37
		c-4.84,2.176,9.213,7.196,6,11c-28.334,0.343-63.633,2.903-67,27c-1.967,14.078,8.176,24.344,13,33
		c-277.762-0.093-555.413-0.083-831,2c29.916-40.303-17.464-65.767-64-61c-2.545-2.079,11.153-9.658,4-10
		c-22.662-1.138-44.771-2.914-65-9c-17.271-5.196-38.911-14.652-40-34c-1.008-17.92,18.755-35.827,33-45
		c48.932-31.51,119.011-45.39,189-48c10.446-8.304,30.076-5.082,47-8c10.403-1.793,22.303-4.788,32-9
		c8.341-3.623,13.385-11.432,21-13c16.326-3.363,39.231,0,60,0c120.736,0,240.084-1,360-1c20.438,0,45.245-3.667,61,0
		c6.553,1.525,14.569,9.515,23,13c9.816,4.057,20.743,6.944,32,9c12.861,2.349,26.439,0.358,39,3c4.487,0.944,8.149,4.133,12,5
		c10.682,2.406,22.264,1.042,33,2c32.576,2.905,60.53,9.15,88,17C1088.422,83.267,1138.081,101.318,1155,143z M753,63
		c-4.933-4.916-8.556-9.812-13-12c-1.869-0.92-0.175,1.2-2,1c-26.252-2.883-54.712,0-83,0c-83.338,0-171.313,0-252,0
		c-8.456,15.286-37.364,20.534-58,17c-0.093,3.574-1.932,5.401-5,6c-33.714-0.123-68.375,8.14-91,20
		c-6.949,3.643-19.602,9.587-23,13c-13.699,13.758-1.822,28.825,9,35c15.562,8.88,41.216,11.225,64,12c0.768,2.454-4.788,5.767,0,6
		c25.687,0.472,52.479,4.637,48,32c156.018,0.677,315.029-0.957,467-1c-7.451-22.495,19.072-33.277,45-32c3.918-1.77-4.918-4.23-1-6
		c26.882-0.946,73.909-4.145,74-30c0.052-14.779-25.652-34.751-42-33c-23.885-11.115-54.021-15.979-88-17
		c-2.427-0.573,0.469-6.469-3-6C784.249,73.692,765.768,65.942,753,63z"/>
</g>
</svg>
