<?xml version="1.0" encoding="utf-8"?>
<!-- Generator: Adobe Illustrator 15.1.0, SVG Export Plug-In . SVG Version: 6.00 Build 0)  -->
<!DOCTYPE svg PUBLIC "-//W3C//DTD SVG 1.1//EN" "http://www.w3.org/Graphics/SVG/1.1/DTD/svg11.dtd">
<svg version="1.1" id="Layer_1" xmlns="http://www.w3.org/2000/svg" xmlns:xlink="http://www.w3.org/1999/xlink" x="0px" y="0px"
	 width="1155px" height="326px" viewBox="0 0 1155 326" enable-background="new 0 0 1155 326" xml:space="preserve">
<g>
	<path fill-rule="evenodd" clip-rule="evenodd" d="M799,68c3.469-0.469,0.573,5.427,3,6c33.979,1.021,64.115,5.885,88,17
		c16.348-1.751,42.052,18.221,42,33c-0.091,25.855-47.118,29.054-74,30c-3.918,1.77,4.918,4.23,1,6
		c-25.928-1.277-52.451,9.505-45,32c-151.971,0.043-310.982,1.677-467,1c4.479-27.363-22.313-31.528-48-32
		c-4.788-0.233,0.768-3.546,0-6c-22.784-0.775-48.438-3.12-64-12c-10.822-6.175-22.699-21.242-9-35c3.398-3.413,16.051-9.357,23-13
		c22.625-11.86,57.286-20.123,91-20c3.068-0.599,4.907-2.426,5-6c20.636,3.534,49.544-1.714,58-17c80.688,0,168.662,0,252,0
		c28.288,0,56.748-2.883,83,0c1.825,0.2,0.131-1.92,2-1c4.444,2.188,8.067,7.084,13,12C765.768,65.942,784.249,73.692,799,68z"/>
</g>
</svg>
