<?xml version="1.0" encoding="utf-8"?>
<!-- Generator: Adobe Illustrator 15.1.0, SVG Export Plug-In . SVG Version: 6.00 Build 0)  -->
<!DOCTYPE svg PUBLIC "-//W3C//DTD SVG 1.1//EN" "http://www.w3.org/Graphics/SVG/1.1/DTD/svg11.dtd">
<svg version="1.1" id="Layer_1" xmlns="http://www.w3.org/2000/svg" xmlns:xlink="http://www.w3.org/1999/xlink" x="0px" y="0px"
	 width="1155px" height="326px" viewBox="0 0 1155 326" enable-background="new 0 0 1155 326" xml:space="preserve">
<g>
	<path fill-rule="evenodd" clip-rule="evenodd" d="M579,10c44.495-2.119,95.482,0.833,139,4c88.782,6.462,166.833,18.714,232,54
		c29.179,15.799,62.745,41.108,70,72c8.155,34.727-12.913,59.514-32,74c-94.048,71.379-297.471,54.632-399,6
		c-15.548-7.447-30.536-18.046-46-23c-34.196-10.956-77.612-4.609-109,4c-64.535,17.7-149.398,26.215-220,6
		c-31.084-8.9-66.894-25.003-69-56c-2.449-36.044,43.078-65.198,67-78c32.408-17.343,69.135-28.219,107-36
		C403.732,19.589,484.619,14.494,579,10z M380,57c-27.56,4.854-57.377,11.983-77,21c-19.631,9.021-51.416,25.939-50,49
		c1.134,18.473,26.166,26.918,39,31c27.905,8.875,57.817,9.156,87,6c28.578-3.091,53.307-11.849,81-16
		c58.38-8.75,117.601-2.289,166,21c63.975,30.784,170.813,41.596,243,12c22.089-9.057,47.209-26.579,47-51
		c-0.15-17.541-11.691-27.907-23-36c-46.784-33.479-97.141-42.951-173-51c-49.512-5.253-108.261-7.511-161-5
		C492.416,41.171,438.878,46.631,380,57z"/>
</g>
</svg>
