<?xml version="1.0" encoding="utf-8"?>
<!-- Generator: Adobe Illustrator 15.1.0, SVG Export Plug-In . SVG Version: 6.00 Build 0)  -->
<!DOCTYPE svg PUBLIC "-//W3C//DTD SVG 1.1//EN" "http://www.w3.org/Graphics/SVG/1.1/DTD/svg11.dtd">
<svg version="1.1" id="Layer_1" xmlns="http://www.w3.org/2000/svg" xmlns:xlink="http://www.w3.org/1999/xlink" x="0px" y="0px"
	 width="1155px" height="326px" viewBox="0 0 1155 326" enable-background="new 0 0 1155 326" xml:space="preserve">
<g>
	<path fill-rule="evenodd" clip-rule="evenodd" d="M273,95c56.369-36.561,139.48-47.094,224-54c86.949-7.104,157.154-7.019,242,3
		c38.627,4.562,75.12,11.006,106,23c23.288,9.045,41.177,13.436,57,31c6.691,7.428,14.261,20.891,14,33
		c-0.508,23.607-23.584,40.02-45,49c-67.322,28.232-167.596,21.589-231-5c-24.275-10.18-44.981-20.273-69-25
		c-26.234-5.163-53.743-6.721-84-5c-53.969,3.069-100.366,25.2-160,20c-11.301-0.985-25.806-3.224-35-6
		c-13.235-3.997-39.171-15.042-40-34C251.369,110.566,262.169,98.863,273,95z"/>
</g>
</svg>
