<?xml version="1.0" encoding="utf-8"?>
<!-- Generator: Adobe Illustrator 15.1.0, SVG Export Plug-In . SVG Version: 6.00 Build 0)  -->
<!DOCTYPE svg PUBLIC "-//W3C//DTD SVG 1.1//EN" "http://www.w3.org/Graphics/SVG/1.1/DTD/svg11.dtd">
<svg version="1.1" id="Layer_1" xmlns="http://www.w3.org/2000/svg" xmlns:xlink="http://www.w3.org/1999/xlink" x="0px" y="0px"
	 width="1155px" height="326px" viewBox="0 0 1155 326" enable-background="new 0 0 1155 326" xml:space="preserve">
<g>
	<path fill-rule="evenodd" clip-rule="evenodd" d="M155,326c-21.935,0-50.849,0-77,0c-26.024,0-53.895,3.278-76,0
		c-1.611-0.239-1.956-0.315-2-2c65.027-86.15,127.198-175.672,193-266c6.616-9.083,21.323-33.673,29-36c9.434-2.86,29.032,0,46,0
		c213.889,0,419.933-1,634-1c15.768,0,33.966-2.676,45,0c7.201,1.747,16.883,14.24,23,20c50.599,47.643,99.872,90.654,149,139
		c0.304,0.299,4.542,2.401,2,4c-177.939-0.272-353.568,1.764-532,1c5.156,46.516,13.364,95.296,17,140
		C455.999,325.667,303.333,323.667,155,326z M893,54c-187.884-0.533-401.632,2.939-609,0c-34.371,66.297-70.037,131.296-104,198
		c97.659,0.645,197.605-1.71,292-1c2.899-40.214,3.531-77.607,8-115c162.331,0,324.668,0,487,0c-20.661-27.34-48.111-56.555-72-84
		C893.678,52.012,894.086,53.753,893,54z"/>
</g>
</svg>
