<?xml version="1.0" encoding="utf-8"?>
<!-- Generator: Adobe Illustrator 17.0.0, SVG Export Plug-In . SVG Version: 6.00 Build 0)  -->
<!DOCTYPE svg PUBLIC "-//W3C//DTD SVG 1.1//EN" "http://www.w3.org/Graphics/SVG/1.1/DTD/svg11.dtd">
<svg version="1.1" id="Layer_1" xmlns="http://www.w3.org/2000/svg" xmlns:xlink="http://www.w3.org/1999/xlink" x="0px" y="0px"
	 width="1155px" height="326px" viewBox="0 0 1155 326" enable-background="new 0 0 1155 326" xml:space="preserve">
<g>
	<path d="M690.016,0c20.723,0,41.446,0,62.169,0c40.172,1.309,81.42,3.473,120.302,7.267c37.243,3.634,75.001,6.256,112.228,13.726
		c30.264,6.072,65.011,17.957,93.658,32.296c26.067,13.047,72.313,43.399,57.325,81.547c-9.38,23.871-43.865,38.725-74.28,47.636
		c-32.996,9.668-66.603,16.908-99.309,22.607c-70.552,12.294-141.723,21.8-222.033,21.8c-123.642,0-232.998-6.834-333.454-30.681
		c-32.827-7.792-68.776-15.329-92.85-29.066c-12.14-6.927-25.883-18.74-29.066-33.103c-8.608-38.84,40.398-66.965,62.977-78.317
		C438.262,10.17,564.064,6.883,690.016,0z M519.656,39.562c-29.519,3.721-54.484,7.142-85.584,18.57
		c-12.738,4.68-22.356,10.519-34.718,16.955c-11.281,5.874-22.572,14.632-20.992,29.874c2.343,22.614,41.213,29.554,66.206,35.525
		c28.201,6.739,57.702,12.442,85.584,16.148c118.796,15.789,241.738,16.946,368.172-1.615c27.233-3.998,56.445-9.614,85.584-16.148
		c24.329-5.456,62.297-13.818,62.977-38.755c0.487-17.846-19.26-32.304-32.296-37.947c-4.461-1.931-9.943-2.24-15.341-4.037
		c-15.166-5.051-34.162-11.144-50.058-13.726c-69.781-11.332-160.828-20.045-234.144-17.763
		C643.834,28.861,586.063,31.19,519.656,39.562z"/>
</g>
</svg>
