<?xml version="1.0" encoding="utf-8"?>
<!-- Generator: Adobe Illustrator 17.0.0, SVG Export Plug-In . SVG Version: 6.00 Build 0)  -->
<!DOCTYPE svg PUBLIC "-//W3C//DTD SVG 1.1//EN" "http://www.w3.org/Graphics/SVG/1.1/DTD/svg11.dtd">
<svg version="1.1" id="Layer_1" xmlns="http://www.w3.org/2000/svg" xmlns:xlink="http://www.w3.org/1999/xlink" x="0px" y="0px"
	 width="1155px" height="326px" viewBox="0 0 1155 326" enable-background="new 0 0 1155 326" xml:space="preserve">
<g>
	<path d="M688.557,32.918c74.334-2.314,166.644,6.52,237.394,18.009c16.117,2.617,35.377,8.795,50.753,13.916
		c5.472,1.822,11.031,2.135,15.553,4.093c13.216,5.722,33.238,20.381,32.744,38.474c-0.689,25.283-39.184,33.762-63.851,39.293
		c-29.543,6.624-59.16,12.318-86.772,16.372c-128.189,18.818-252.837,17.645-373.282,1.637c-28.269-3.757-58.179-9.54-86.772-16.372
		c-25.341-6.054-64.75-13.09-67.125-36.018c-1.601-15.454,9.846-24.333,21.284-30.288c12.534-6.526,22.285-12.445,35.2-17.191
		c31.532-11.586,56.843-15.055,86.772-18.828C557.785,37.527,616.357,35.166,688.557,32.918z"/>
</g>
</svg>
