<?xml version="1.0" encoding="utf-8"?>
<!-- Generator: Adobe Illustrator 15.1.0, SVG Export Plug-In . SVG Version: 6.00 Build 0)  -->
<!DOCTYPE svg PUBLIC "-//W3C//DTD SVG 1.1//EN" "http://www.w3.org/Graphics/SVG/1.1/DTD/svg11.dtd">
<svg version="1.1" id="Layer_1" xmlns="http://www.w3.org/2000/svg" xmlns:xlink="http://www.w3.org/1999/xlink" x="0px" y="0px"
	 width="1155px" height="326px" viewBox="0 0 1155 326" enable-background="new 0 0 1155 326" xml:space="preserve">
<g>
	<path fill-rule="evenodd" clip-rule="evenodd" d="M285,20c201.001,0,401.996,0,603,0c23.364,14.636,40.242,35.758,60,54
		c20.86,16.806,38.283,37.05,59,54c18.699,18.967,38.354,36.979,58,55c9.604,9.396,19.349,18.651,29,28
		c8.542,8.795,22.029,17.967,27,27c-349.597,1.074-700.395,0.929-1050,2c-4.616-0.746,3.472-3.954,3-7c2.754-1.912,5.087-4.246,7-7
		c31.627-31.372,64.023-61.978,94-95c36.646-35.354,72.088-71.912,108-108C282.956,21.29,283.743,20.41,285,20z M610,46
		c-73.657,0.162-191.561,2.666-297,0c-0.294-2.378-2.706,1.111-3,2c-19.289,22.378-37.634,45.699-57,68
		c-8.87,12.13-19.667,22.333-28,35c-5.437,4.897-10.229,10.438-14,17c-3.596,1.737-4.98,5.687-8,8c-0.569,2.549-8.108,7.268-4,8
		c257.936-0.065,514.329-1.671,773-1c-15.404-22.93-39.006-46.327-58-69c-20.335-22.999-38.868-47.798-61-69
		C771.5,48.284,693.162,45.818,610,46z"/>
</g>
</svg>
